<svg width="24" height="24" viewBox="0 0 24 24" fill="none" xmlns="http://www.w3.org/2000/svg"><g stroke="currentColor" stroke-linecap="round" stroke-linejoin="round"><path d="M8 2v3m8-3v3M3.5 9h17m-1.4 11.1L16.9 18m2.2 0-2.2 2.1M18 23a4 4 0 1 0 0-8 4 4 0 0 0 0 8Z" stroke-width="1.5" stroke-miterlimit="10"/><path d="M3 13V8.5c0-3 1.5-5 5-5h8c3.5 0 5 2 5 5v7.9a4 4 0 0 0-7 2.6 4 4 0 0 0 1.4 3H8c-3.5 0-5-2-5-5" stroke-width="1.5" stroke-miterlimit="10"/><path d="M12 13.7h0m-3.7 0h0m0 3h0" stroke-width="2"/></g></svg>
