<svg viewBox="0 0 24 24" fill="none" xmlns="http://www.w3.org/2000/svg"><g stroke="currentColor" stroke-width="1.5" stroke-linecap="round" stroke-linejoin="round"><path d="M12 22a10 10 0 1 0 0-20 10 10 0 0 0 0 20Z"/><path d="M14.3 19v-1.9a2.1 2.1 0 0 0-.6-1.7c2.1-.2 4.3-1 4.3-4.5 0-1-.4-1.8-1-2.4.3-.8.3-1.7 0-2.5 0 0-.8-.2-2.7 1a9.2 9.2 0 0 0-4.6 0C7.8 5.8 7 6 7 6c-.4.8-.4 1.7-.1 2.5-.6.6-1 1.5-1 2.4 0 3.5 2.2 4.3 4.3 4.6a2.2 2.2 0 0 0-.6 1.6V19"/><path d="M9.7 17.7c-2 .6-3.7 0-4.7-2"/></g></svg>
