<svg viewBox="0 0 92 72" fill="none" xmlns="http://www.w3.org/2000/svg"><g stroke="#EB996E" stroke-width=".6" stroke-linecap="round" stroke-linejoin="round"><g opacity=".3"><path d="M73.8 25a5.1 5.1 0 1 0-1.1-10.2A5.1 5.1 0 0 0 73.8 25Z"/><path d="M77 22a4.4 4.4 0 1 0-7.6-4.2 4.4 4.4 0 0 0 7.7 4.2Z"/><path d="M75.1 20.8c0-1.5-2-1.5-2-2.1 0-.4 0-.5.4-.5.3 0 .6.2.9.4l.7-.8c-.4-.3-.8-.6-1.3-.6v-.9H73v.9c-.7.2-1.2.7-1.2 1.5 0 1.4 2 1.5 2 2.2 0 .3 0 .4-.5.4-.3 0-.7-.1-1-.4l-.7.9c.4.3 1 .6 1.4.6v.8h1v-.8c.8-.2 1.2-.9 1.2-1.6Z"/></g><g opacity=".3"><path d="M76.3 49.4a2.3 2.3 0 1 0 0-4.7 2.3 2.3 0 0 0 0 4.7Z"/><path d="M77.7 48.5a2 2 0 1 0-2.8-2.8 2 2 0 0 0 2.8 2.8Z"/><path d="M77.1 47.5c0-.7-1-.7-1-1l.3-.2.4.2.3-.4a1 1 0 0 0-.5-.3v-.3h-.4v.3a.7.7 0 0 0-.6.8c0 .6 1 .6 1 1l-.3.1c-.2 0-.4 0-.5-.2l-.3.5.6.2v.4h.5v-.4a.7.7 0 0 0 .5-.7Z"/></g><g opacity=".3"><path d="M34.4 10a3.7 3.7 0 1 0-1.2-7.2 3.7 3.7 0 0 0 1.2 7.2Z"/><path d="M36.4 8a3.1 3.1 0 1 0-5.2-3.3 3.1 3.1 0 0 0 5.2 3.4Z"/><path d="M35.1 7c0-1-1.5-1-1.5-1.5 0-.2.2-.3.4-.3l.6.3.5-.6c-.2-.2-.5-.4-.9-.5v-.6h-.6v.6a1 1 0 0 0-1 1.1c0 1 1.6 1.1 1.6 1.6 0 .2-.1.3-.4.3-.3 0-.5 0-.8-.3l-.5.6c.3.3.7.4 1 .5v.6h.7V8a1.1 1.1 0 0 0 1-1Z"/></g><g opacity=".3"><path d="M5.2 50a2.3 2.3 0 1 0-.8-4.6 2.3 2.3 0 0 0 .8 4.6Z"/><path d="M6.8 47.7a2 2 0 1 0-4 0 2 2 0 0 0 4 0v0Z"/><path d="M5.6 48.1c0-.6-1-.7-1-1L5 47c.2 0 .3 0 .4.2l.3-.4a1 1 0 0 0-.5-.3V46h-.5v.4a.7.7 0 0 0-.5.7c0 .6 1 .7 1 1l-.3.2-.5-.2-.3.4.6.3v.3H5V49a.7.7 0 0 0 .6-.8v0Z"/></g><g opacity=".3"><path d="M63.3 60.5a2.3 2.3 0 1 0-.7-4.6 2.3 2.3 0 0 0 .7 4.6Z"/><path d="M65 58.2a2 2 0 1 0-4 0 2 2 0 0 0 4 0v0Z"/><path d="M63.8 58.6c0-.7-1-.7-1-1 0-.1.1-.2.3-.2l.4.2.3-.4a1 1 0 0 0-.6-.3v-.3h-.4v.3a.7.7 0 0 0-.6.7c0 .7 1 .7 1 1 0 .2 0 .2-.3.2-.2 0-.3 0-.5-.2l-.3.5.7.2v.4h.4v-.4a.7.7 0 0 0 .6-.7Z"/></g><g opacity=".3"><path d="M16.8 23.6a2.3 2.3 0 1 0 0-4.7 2.3 2.3 0 0 0 0 4.7Z"/><path d="M18.7 22a2 2 0 1 0-3.8-1.4 2 2 0 0 0 3.8 1.3Z"/><path d="M17.6 21.6c0-.6-1-.6-1-1l.3-.1c.2 0 .3 0 .4.2l.3-.4a1 1 0 0 0-.5-.3v-.4h-.5v.4a.7.7 0 0 0-.5.7c0 .7 1 .7 1 1 0 .1-.1.2-.3.2-.2 0-.4 0-.5-.2l-.3.4.6.3v.4h.5v-.4a.7.7 0 0 0 .5-.8v0Z"/></g><g opacity=".3"><path d="M15.3 54.6a5.1 5.1 0 1 0-1-10.2 5.1 5.1 0 0 0 1 10.2Z"/><path d="M18.7 51.4a4.4 4.4 0 1 0-7.8-3.8 4.4 4.4 0 0 0 7.8 3.8Z"/><path d="M16.6 50.4c0-1.5-2-1.5-2-2.1 0-.3.1-.4.5-.4.3 0 .5 0 .8.4l.7-.8c-.3-.4-.7-.6-1.2-.7V46h-1v.8c-.7.2-1.2.7-1.2 1.5 0 1.5 2.1 1.5 2.1 2.2 0 .3-.1.4-.5.4s-.7 0-1.2-.4l-.6 1c.5.3 1 .5 1.5.5v.8h.9V52c.8-.2 1.2-.8 1.2-1.6Z"/></g></g><g fill="#BC9434"><path d="M11.8 25c0 .6-.5 2-.5 2l-.8-.8c-.5-.5-1.2-1.9-.8-2.6a1 1 0 0 1 1.4-.3c.5.3.7 1 .7 1.6Z"/><path d="M25.2 38h.1v.6l-.3-.2-1-.7-1 .9c.3.5.4 1.8.4 2a46.5 46.5 0 0 0 1.9-.2l-.2.5h-1.8c0 .2-.2 1.5-.6 2-.3.5-.8 1-1.4 1a1 1 0 0 1-1-1c0-.8 1.2-1.6 2-1.8l.8-.1H20.8l-.6-.2-1.4-.2c0 .3 0 1.5-.3 2-.2.5-.6 1-1.2 1.2A1 1 0 0 1 16 43c-.1-.9 1-1.9 1.7-2.2l.8-.2-.8-.2-2.5-.7-.7-.2c0 .2 0 1.5-.3 2-.2.6-.7 1.2-1.2 1.3a1 1 0 0 1-1.3-.8c0-.9 1-1.9 1.7-2.2l1-.3a31.3 31.3 0 0 0-3.9-.7s0 1.5-.2 2c-.3.6-.7 1.1-1.3 1.3a1 1 0 0 1-1.2-.9c-.1-.8 1-1.8 1.7-2.1l1-.3h-.1A12.8 12.8 0 0 0 7 39v2c-.2.6-.6 1.2-1.2 1.4a1 1 0 0 1-1.3-.7c-.1-.8.9-1.9 1.5-2.3l.7-.3-.5.1a20.8 20.8 0 0 0-2.4.7c-.1.3-.6 1.4-1 1.8-.4.4-1 .8-1.6.7-.6-.1-1-.6-.9-1.2.2-.8 1.7-1.4 2.4-1.4h1a23 23 0 0 1 4.5-1 13 13 0 0 1 2.3-.2l-.9-.4C8.9 38 7.9 36.8 8 36a1 1 0 0 1 1.3-.8c.6.2 1 .8 1.2 1.3.2.6.1 2 .1 2.1a17.6 17.6 0 0 1 3.3.4c-.7-.3-1.7-1.4-1.6-2.2a1 1 0 0 1 1.3-.8c.6.2 1 .8 1.2 1.3.2.5.1 1.7 0 2l.6.1 2.5.6.8.2-.3-.1c-.7-.4-1.8-1.5-1.6-2.3a1 1 0 0 1 1.3-.7c.5.1 1 .7 1.1 1.3.2.5.2 1.6.2 2h1.4l.6.1h1.8l-.8-.2c-.7-.2-1.2-.6-1.6-1.1a1.2 1.2 0 0 1-.5-.4 1 1 0 0 1 0-1.2c.4-.6 2-.6 2.6-.4l.8.4-.5-.4-.9-.6-.4-.4c-.2 0-.3-.2-.5-.4l-1-1c-.2.4-.9 1.3-1.3 1.6-.5.3-1.2.5-1.8.3-.5-.2-.8-.8-.5-1.4.3-.7 1.8-1 2.6-.8l.8.2-.6-.6-1.7-1.9-.5-.5a7 7 0 0 1-1.3 1.5c-.5.3-1.2.6-1.7.3a1 1 0 0 1-.6-1.3c.4-.8 1.9-1 2.6-.9l1 .3a30.2 30.2 0 0 0-2.9-2.7 7 7 0 0 1-1.3 1.5c-.5.3-1.2.6-1.7.4a1 1 0 0 1-.6-1.4c.4-.7 1.9-1 2.6-.8l1 .2a13 13 0 0 0-3.1-1.7c-.1.2-.7 1.3-1.2 1.6-.4.4-1 .7-1.6.6a1 1 0 0 1-.8-1.3c.3-.8 1.8-1.2 2.5-1.2l.8.2-.5-.2-1.6-.6-.8-.2c-.3.2-1.3.9-1.8 1-.6 0-1.3 0-1.7-.4-.5-.4-.5-1 0-1.4.5-.6 2-.2 2.7.1l.8.7.8.2 1.6.5a17.6 17.6 0 0 1 4 2 24 24 0 0 1-.6-.9c-.4-.6-.7-2.1-.1-2.7a1 1 0 0 1 1.5 0c.4.5.4 1.2.2 1.8-.1.6-1 1.7-1 1.8a17.6 17.6 0 0 1 2.5 2.1c-.3-.6-.6-2.1 0-2.7a1 1 0 0 1 1.4 0c.4.5.4 1.3.3 1.8-.1.5-.8 1.5-1 1.8l.4.3 1.7 1.9a23.5 23.5 0 0 0 .4.3c-.4-.7-.7-2.2 0-2.8.3-.4 1-.3 1.4.1.4.5.4 1.2.3 1.8L21 35l.7.5.4.4.5.3 1 .7.5.4-.6-.7c-.5-.6-1-2-.5-2.7a1 1 0 0 1 1.5-.1c.4.3.5 1 .5 1.6 0 .6-.7 1.8-.7 2l1 .5Z"/><path d="m6.9 39-1-.2c-.8-.1-2.1-.9-2.2-1.7a1 1 0 0 1 1-1c.6 0 1.2.4 1.5.9.4.5.7 2 .7 2ZM80 25c0 .6.5 2 .5 2l.8-.8c.5-.5 1.2-1.9.8-2.6a1 1 0 0 0-1.4-.3c-.5.3-.7 1-.7 1.6Z"/><path d="M66.6 38h-.1v.6l.3-.2 1.1-.7 1 .9a7 7 0 0 0-.5 2 46.9 46.9 0 0 1-1.9-.2l.2.6h1.8c0 .1.3 1.4.6 2 .3.4.8 1 1.4 1a1 1 0 0 0 1.1-1c0-.9-1.3-1.7-2-1.9l-.8-.1h1.6l.6-.1h.6l1.4-.3c0 .3 0 1.5.3 2 .2.5.7 1 1.2 1.2a1 1 0 0 0 1.3-.8c0-.9-1-1.9-1.8-2.2l-.8-.2.9-.2 2.4-.7.7-.2c0 .2 0 1.5.3 2 .2.6.7 1.2 1.3 1.3.5.1 1.1-.2 1.2-.8 0-.9-1-1.9-1.7-2.2l-1-.3a31.2 31.2 0 0 1 3.9-.7s0 1.5.3 2c.2.6.6 1.1 1.2 1.3a1 1 0 0 0 1.2-.9c.1-.8-1-1.8-1.7-2.1l-1-.3h.2a12.8 12.8 0 0 1 3.4.2v2c.2.6.6 1.2 1.2 1.4a1 1 0 0 0 1.3-.7c.2-.8-.8-1.9-1.5-2.3l-.7-.3.5.1a20.8 20.8 0 0 1 2.5.7c0 .3.5 1.4 1 1.8.4.4 1 .8 1.5.7a1 1 0 0 0 .9-1.2c-.2-.8-1.6-1.4-2.4-1.4h-1a22.8 22.8 0 0 0-4.5-1 13 13 0 0 0-2.3-.2l1-.4c.6-.3 1.7-1.4 1.5-2.2a1 1 0 0 0-1.3-.8c-.5.2-1 .8-1.1 1.3-.3.6-.2 2-.2 2.1a17.6 17.6 0 0 0-3.3.4c.7-.3 1.8-1.4 1.6-2.2a1 1 0 0 0-1.3-.8c-.5.2-1 .8-1.1 1.3-.2.5-.2 1.7-.2 2l-.5.1-2.4.6-.9.2.4-.1c.6-.4 1.7-1.5 1.5-2.3a1 1 0 0 0-1.2-.7c-.6.1-1 .7-1.2 1.3a6 6 0 0 0-.2 2H71l-.6.1h-1.8l.9-.2c.6-.2 1.1-.6 1.5-1.1a1.2 1.2 0 0 0 .6-.4 1 1 0 0 0 0-1.2c-.5-.6-2-.6-2.7-.4l-.8.3c.2 0 .3-.2.5-.3l.9-.6.5-.4.4-.3 1-1c.2.3.9 1.2 1.4 1.5.4.3 1.1.5 1.7.3.5-.2.8-.8.6-1.3-.4-.8-2-1-2.7-.9l-.8.2.6-.6 1.7-1.9.5-.5a7 7 0 0 0 1.4 1.5c.4.3 1.1.6 1.7.3a1 1 0 0 0 .5-1.3c-.3-.8-1.8-1-2.6-.9l-1 .3a30.3 30.3 0 0 1 2.9-2.7s.8 1.2 1.3 1.5c.5.3 1.2.6 1.8.4a1 1 0 0 0 .5-1.4c-.4-.7-1.9-1-2.6-.8l-1 .3.1-.1a13 13 0 0 1 3-1.7c.2.2.7 1.3 1.2 1.6.5.4 1.1.7 1.7.6A1 1 0 0 0 84 28c-.3-.8-1.8-1.2-2.5-1.2l-.8.2.5-.2 1.7-.6.8-.2c.2.2 1.2.9 1.7 1 .6 0 1.3 0 1.8-.4.4-.3.4-1 0-1.4-.6-.6-2.1-.2-2.7.1l-1 .7h.1l-.7.2-1.7.5a17.5 17.5 0 0 0-3.9 2l.5-.9c.4-.6.7-2.1.1-2.7a1 1 0 0 0-1.5 0c-.3.5-.3 1.2-.2 1.8.1.6 1 1.7 1 1.8a17.6 17.6 0 0 0-2.5 2.1c.4-.6.7-2.1 0-2.7a1 1 0 0 0-1.4 0c-.4.5-.4 1.3-.3 1.8l1 1.7-.3.4-1.8 1.9a21.7 21.7 0 0 1-.4.3c.4-.7.7-2.1.1-2.8a1 1 0 0 0-1.5.1c-.4.5-.4 1.2-.2 1.8 0 .5.7 1.4 1 1.7l-.7.5-.5.4-.5.3-.9.7-.6.4.6-.7c.5-.6 1-2 .5-2.7a1 1 0 0 0-1.4-.1c-.5.3-.6 1-.6 1.6 0 .6.7 1.8.8 2l-1 .5Z"/><path d="m85 39 1-.2c.7-.1 2-.9 2.1-1.7 0-.6-.4-1-1-1s-1.1.4-1.5.9c-.4.5-.7 2-.7 2Z"/></g><g stroke="#BC9434" stroke-width=".6" stroke-linejoin="round"><path d="m27.5 13.3-2.3 1.9 2.8 3.6 2.3-1.8-2.8-3.7Z" fill="#BC9434"/><path d="m27.3 11.4-4 3.1 2 2.6 4-3.1-2-2.6Z" fill="#BC9434"/><path d="m24.2 14 1.5 1.9M25.5 13l1.5 1.8M25.2 14l1.5 1.8"/><path d="m57.9 17 2.3 1.8 2.9-3.6-2.4-1.9L58 17Z" fill="#BC9434"/><path d="m59 14 3.9 3.1 2-2.6-4-3-2 2.5Z" fill="#BC9434"/><path d="m64 14-1.4 1.9M62.7 13l-1.5 1.8M63 14l-1.4 1.8"/><path d="M46.4 7h-4.9v4.8h4.9V7Z" fill="#BC9434"/><path d="M47.4 4.2h-7V9h7V4.2Z" fill="#BC9434"/><path d="M41 4.2v4M41.7 8.4V6.2M42.3 4.3v3M42.9 5.8v2.8M43.8 4.3v3.2"/><path d="M61.8 54A25.2 25.2 0 1 0 26 18.3 25.2 25.2 0 0 0 61.8 54Z" fill="#BC9434"/><path d="M59.7 52a22.3 22.3 0 1 0-31.5-31.6A22.3 22.3 0 0 0 59.7 52Z" fill="#fff"/><path d="M58.5 50.7a20.5 20.5 0 1 0-29-29 20.5 20.5 0 0 0 29 29Z" fill="#fff"/><path d="M44 15.7v2.7M44 54v2.7M64.5 36.2h-2.8M26.2 36.2h-2.8M58.5 21.7l-2 2M31.4 48.7l-2 2M29.4 21.7l2 2M56.5 48.7l2 2"/><path d="m49 34.2.3 1.3-21 5v-.4L49 34.2Z" fill="#BC9434"/><path d="M44.7 36.2a.8.8 0 1 0-1.6 0 .8.8 0 0 0 1.6 0Z" fill="#fff"/></g><path d="m36.2 51.4-1.2-.8-.9.8-2.6.4c-.4 0-.7-.1-.8 0 0 .3.6.7 1.6 1 .4 0 1 .3 1.5.5l-.1.2 1.6.5c.1 0 .2 0 .3-.2.2-.2.6-2.4.6-2.4ZM57.5 40.7l.3 1.4H59l2.1 1.7c.3.3.4.5.6.4.2 0 0-.8-.4-1.7a20 20 0 0 1-.7-1.4h.2l-.8-1.6c0-.1-.2 0-.4 0-.3 0-2 1.2-2 1.2Z" fill="#BC9434" stroke="#BC9434" stroke-width=".6" stroke-linejoin="round"/><path d="M42.8 36.7s-.4.3-.3.5l.4.4s-5.4 4.5-5.5 4.9c0 .3-3.3 8.1-3.3 8.1l2.5 1.3 3.3-7.9 5.6-3.5s4 5.7 4.4 5.7c.4 0 8.7-4 8.7-4l-.8-1.8-7 2.4-2.2-5s.5-.9.2-1.7c-.3-1-1.3-2.3-1.3-2.3l-4.7 3Z" fill="#BC9434" stroke="#BC9434" stroke-width=".6" stroke-linejoin="round"/><path d="m45.5 40.4 2.9-1.8M44 36.7l1-.7c.5-.3 1.7-.3 1.7-.3M43.2 37.5l.4-.4M47.3 35.4l-1.8.1M46.1 40.2s2 .4 2.8.3M48.6 41.8l.5.1M46 40.6c.8.4 1.5.8 2.2 1" stroke="#999" stroke-width=".6" stroke-linejoin="round"/><path d="m42.4 36.3.4.4 4.7-2.9-.3-.3-4.8 2.8Z" fill="#BC9434" stroke="#BC9434" stroke-width=".6" stroke-linejoin="round"/><path d="m49.3 30.5.4.5 1-.3-.2-.5-1.2.3Z" fill="#fff" stroke="#BC9434" stroke-width=".6" stroke-linejoin="round"/><path d="M38.2 26.2H35c-1 0-4-.6-4.3-.2-.3.5.3 1.7 1.7 2.2 1.5.5 4.7 1 4.7 1l2 2.6c.8 1 2.2 3.2 2.3 3.4.1.2.7 1.5 1.4 1.3.7-.3 4.6-2.7 4.6-3l-.1-.5-1.8-2.3-1-2.7 1.8-.4 2.6 2.8c.5.4.8.2.8.2s1-.1 1-.4c0-.3-3.3-5.4-3.6-5.6-.3-.2-2.5.6-3.4.7-1 .2-2 .2-3.3.5l-2.2.4Z" fill="#fff" stroke="#BC9434" stroke-width=".6" stroke-linejoin="round"/><path d="m44.4 28-3 .9M43 28.4l-1 .8M34.5 28l-.4-.3M35 27.7l2 1.4-2.1-1M42.1 32.3c1 .2 3 .5 4.5.5M41.3 32.1l.4.1M44.5 32.4l2 .2" stroke="#BC9434" stroke-width=".6" stroke-linejoin="round"/><path d="m38.1 27.8.5 1.5.6-1.5h-1Z" fill="#BC9434" stroke="#BC9434" stroke-width=".6" stroke-linejoin="round"/><path d="m38.3 26.7-.6.6 1 .8.6-1-1-.4Z" fill="#fff" stroke="#BC9434" stroke-width=".6" stroke-linejoin="round"/><path d="m37.7 27.3.2 1.2.5-.6-.7-.6Z" fill="#fff" stroke="#BC9434" stroke-width=".6" stroke-linejoin="round"/><path d="M35.7 22s-.4 1-.3 1.3l.2.7c0 .3-.7 1-.6 1l.7.4s.6 1.2.8 1.3l1.3-.6.9 2 1.7-2.5-.6-1.1s.5-1.3 0-2.3c-.4-1-2-1.2-2.7-1-.7 0-1.2.4-1.4.8Z" fill="#fff" stroke="#BC9434" stroke-width=".6" stroke-miterlimit="10"/><path d="M37.1 21.8a1.2 1.2 0 0 0-1 .2c-.5.4-.9.8-1 .4-.3-.3.3-1 .3-1s-.5-.1-.3-.7 1-.7 1-.5c0 .2 0 .4.5 0 .6-.2.9-.3 1 0 .1.4.9.2 1.7.6.9.5 1 .8.9 1.9-.2 1-.2 1.6-.4 1.8-.1.2-.6.2-.9.2-.2-.1 0-.3 0-.3s.5-.6.3-1.1c-.3-.5-.7-.3-.8 0-.1.3 0 .5-.3.5-.2 0-.3-.2-.4-.5 0-.2-.1-.5-.3-.5 0 0-.4.2-.4-.3 0-.3.1-.5.3-.7h-.2Z" fill="#BC9434" stroke="#BC9434" stroke-width=".6" stroke-miterlimit="10"/><path d="M35.7 23.8a.5.5 0 0 1 .5-.5" stroke="#BC9434" stroke-width=".6" stroke-miterlimit="10"/><path d="M36.2 24v.3L36 24v-.2l.2.1Z" fill="#BC9434"/><path d="m40.4 25-1.8 2.2.3 1.3 2-3-.5-.5Z" fill="#fff" stroke="#BC9434" stroke-width=".6" stroke-linejoin="round"/><path d="M38.6 29.3a.6.6 0 0 0 .4.4c.4.1 1-.2 1.3-1 .4-.8 1-3 1.4-3.6.4-.5 1.6-.5 2.3-.5.7 0 1.1-.6 1.7-.9l1.1-.3.8-1.6H46s-1.6.7-2 1.2c-.4.4-.7.4-1.5.5-.9.2-1.4.6-1.7 1.6-.4 1-.8 3.7-1.3 4a1 1 0 0 1-1 .2Z" fill="#BC9434" stroke="#BC9434" stroke-width=".6" stroke-linejoin="round"/><path d="M33 27.6c.2.2.2.5 0 .6 0 .2-.4.1-.5 0-.2-.2-.3-.5-.1-.7.1-.1.4 0 .6.1Z" fill="#fff" stroke="#BC9434" stroke-width=".6" stroke-linejoin="round"/><path d="m32.9 28-.3-.3s-.7-1.6-1.5-2c-.8-.5-1.8.2-2 .8-.2.6.5 1.6 1.3 2l1.9.5s.3-.8.6-1Z" fill="#fff" stroke="#BC9434" stroke-width=".6" stroke-linejoin="round"/><path d="m31.8 28.8.5.2s.3-.8.6-1l-.3-.3s-.9.1-.8 1.1Z" fill="#BC9434" stroke="#BC9434" stroke-width=".6" stroke-linejoin="round"/><path d="m34.7 30.5.4.4c.2.1.2.2 0 .2a.9.9 0 0 1-.6-.2l-.3-.4h.5Z" fill="#fff" stroke="#BC9434" stroke-width=".6" stroke-linejoin="round"/><path d="M34.8 29.9s.3.4.2.5c0 .2-1 .2-1 .2-.2 0-.1-.3-.1-.3l1-.4Z" fill="#fff" stroke="#BC9434" stroke-width=".6" stroke-linejoin="round"/><path d="m34.8 29.4.2.4c0 .2-1 .6-1.1.6-.2 0-.2-.2-.2-.2l1.1-.8Z" fill="#fff" stroke="#BC9434" stroke-width=".6" stroke-linejoin="round"/><path d="M34.5 29s.3 0 .3.2c0 .3-.1.4-.3.5l-.8.5-.4-.4 1.2-.8Z" fill="#fff" stroke="#BC9434" stroke-width=".6" stroke-linejoin="round"/><path d="m32.9 28 1.3.4c.4.1.4.5.3.6l-1 1-.4-.2-.6-.5-.2-.3s0-.8.6-1Z" fill="#fff" stroke="#BC9434" stroke-width=".6" stroke-linejoin="round"/><path d="M33.1 29.8v-.5l.3.1.2-.3" stroke="#BC9434" stroke-width=".6" stroke-linejoin="round"/><path d="m49.7 31 .1.9-.4 1 .2.3.4.1c.2.2.4.5.7.5l.4-.5s.6-.3.6-.5l-.1-.6-.8-1.5-1 .3Z" fill="#fff" stroke="#BC9434" stroke-width=".6" stroke-linejoin="round"/><path d="M49.9 32.7s.3 0 .4.5" stroke="#BC9434" stroke-width=".6" stroke-linejoin="round"/><path d="m50 33-.6.3.6 1.2" stroke="#BC9434" stroke-width="1.7" stroke-linecap="round" stroke-linejoin="round"/><path d="M51.7 32.4h.2l.6 1.2" stroke="#BC9434" stroke-width="1.7" stroke-linejoin="round"/><path d="m54.8 32.3-6.7 3c-.3.2-.4.5-.3.7l1.8 4c.1.3.4.5.7.3l6.8-3c.2 0 .3-.4.2-.7l-1.8-4a.5.5 0 0 0-.7-.3Z" fill="#BC9434" stroke="#BC9434" stroke-width=".6" stroke-linejoin="round"/></svg>
