<svg viewBox="0 0 136 22" fill="none" xmlns="http://www.w3.org/2000/svg"><path d="M22.8 8.4v1c0 3-.8 5-2.3 6.2-1.6 1.2-4.3 1.8-8.2 1.8H.1V.4h12c4 0 6.7.6 8.3 1.8 1.6 1.2 2.4 3.3 2.4 6.2Zm-11.5-5H3.8v11h7.5c2.1 0 3.8-.2 4.9-.5 1.1-.4 1.9-1 2.3-1.7.4-.7.6-1.7.6-3.1v-.3c0-1.4-.2-2.4-.6-3.2C18 5 17.3 4.3 16.2 4c-1.1-.4-2.8-.6-5-.6Zm30.5 6.2v7.8h-3.4v-2.6c-.8 2-3 2.9-6.7 2.9-4.3 0-6.4-1.4-6.4-4.1v-.2c0-2.4 1.5-3.6 4.5-3.7l8.6-.3c0-1.1-.3-1.8-1-2.2-.7-.4-2-.6-3.6-.6-1.3 0-2.3.1-3 .4-.6.2-1 .7-1.4 1.3H26a4.6 4.6 0 0 1 2.4-3c1.2-.7 3-1 5.5-1h.7c2.6 0 4.5.4 5.6 1.2 1.1.8 1.7 2.2 1.7 4.1Zm-13 3.7v.1c0 .7.2 1.3.9 1.6.6.3 1.6.4 3 .4 1.7 0 3-.3 4.1-.9 1-.6 1.6-1.5 1.6-2.6v-.4l-7.1.3c-1 0-1.6.2-2 .4-.4.2-.6.6-.6 1.1Zm31.6-8.8-9.4 17h-3.6l2.5-4.1-7.1-12.9h3.6l5.3 9.5h.1l5-9.5h3.6Z" fill="#fff"/><path d="M73.3 3.6v13.8h-3.7V3.6h-8.8V.4h21.3v3.2h-8.8Zm23.6 6v7.8h-3.4v-2.6h-.1c-.8 2-3 2.9-6.7 2.9-4.2 0-6.3-1.4-6.3-4.1v-.2c0-2.4 1.5-3.6 4.5-3.7l8.6-.3c0-1.1-.4-1.8-1-2.2-.8-.4-2-.6-3.6-.6-1.3 0-2.3.1-3 .4-.6.2-1.1.7-1.4 1.3H81a4.6 4.6 0 0 1 2.3-3c1.2-.7 3.1-1 5.6-1h.7c2.6 0 4.4.4 5.6 1.2 1 .8 1.7 2.2 1.7 4.1Zm-13.1 3.7v.1c0 .7.3 1.3 1 1.6.6.3 1.6.4 3 .4 1.7 0 3-.3 4.1-.9 1-.6 1.6-1.5 1.6-2.6v-.4l-7.1.3c-1 0-1.6.2-2 .4-.4.2-.6.6-.6 1.1Zm24.3 4.4h-.6c-2.6 0-4.6-.3-5.9-.8a4 4 0 0 1-2.4-2.9h3.6c.3.5.8.8 1.6 1 .8.2 2 .2 3.5.2 1.8 0 3.1 0 3.8-.3.7-.3 1-.7 1.1-1.3 0-.5-.2-.9-.7-1-.4-.2-1.3-.3-2.6-.4l-4.6-.1c-1.9 0-3.2-.4-4-1-.9-.5-1.3-1.4-1.3-2.6v-.2c0-1.5.7-2.5 2-3.1 1.2-.6 3.2-.9 5.9-.9h.3c2.4 0 4.2.3 5.4.9a5 5 0 0 1 2.6 2.7h-3.7c-.5-.8-2-1.2-4.6-1.2a12 12 0 0 0-3.5.3c-.7.3-1 .6-1 1.2 0 .5.2.8.7 1 .5.2 1.3.3 2.6.3l4.7.2a8 8 0 0 1 4 1c.8.5 1.2 1.3 1.2 2.5v.3c0 1.6-.7 2.6-2 3.3-1.3.6-3.3.9-6.1.9Zm13.9-4v3.7h-3.4V.4h3.4v10h.1l8.4-5.9h4.7l-7.8 5.5 8.5 7.4h-4.8l-6.3-5.5-2.8 1.9Z" fill="#FED36A"/></svg>
